<svg width="20" height="19" viewBox="0 0 20 19" fill="none" xmlns="http://www.w3.org/2000/svg">
<path d="M0.239619 2.32989L4.24348 8.32989C4.64387 8.94006 4.64387 9.65192 4.24348 10.2621L0.239619 16.2621C-0.360961 17.1773 0.239619 18.296 1.24058 18.296H4.24348C5.04425 18.296 5.74493 17.8892 6.14532 17.279L10.5496 10.7706C11.1501 9.95701 11.1501 8.83836 10.5496 7.92311L6.24541 1.31294C5.84503 0.70277 5.04425 0.29599 4.34358 0.29599H1.34068C0.239619 0.29599 -0.360961 1.51633 0.239619 2.32989Z" fill="white"/>
<path d="M9.23962 2.32989L13.2435 8.32989C13.6439 8.94006 13.6439 9.65192 13.2435 10.2621L9.23962 16.2621C8.63904 17.1773 9.23962 18.296 10.2406 18.296H13.2435C14.0443 18.296 14.7449 17.8892 15.1453 17.279L19.5496 10.7706C20.1501 9.95701 20.1501 8.83836 19.5496 7.92311L15.2454 1.31294C14.845 0.70277 14.1444 0.29599 13.3436 0.29599H10.3407C9.23962 0.29599 8.63904 1.51633 9.23962 2.32989Z" fill="white"/>
</svg>
